<svg width="357" height="260" viewBox="0 0 357 260" fill="none" xmlns="http://www.w3.org/2000/svg">
<g clip-path="url(#clip0_56_197)">
<path d="M207.952 45.835C214.643 45.835 220.067 40.4036 220.067 33.7037C220.067 27.0038 214.643 21.5725 207.952 21.5725C201.261 21.5725 195.837 27.0038 195.837 33.7037C195.837 40.4036 201.261 45.835 207.952 45.835Z" fill="#F5E4CE"/>
<path d="M301.93 225.876C319.938 212.142 328.538 189.063 323.154 167.047C323.02 166.5 322.879 165.954 322.73 165.41C319.161 152.341 310.329 139.921 297.458 135.745C286.65 132.239 274.853 134.935 263.578 133.541C241.445 130.804 224.286 112.871 212.212 94.0956C200.138 75.3198 190.859 54.3029 174.815 38.7914C148.37 13.2232 105.231 7.71832 72.4424 24.3613C39.6541 41.0043 18.7683 77.9282 19.659 114.728C20.5498 151.527 42.3663 186.71 74.0493 205.376C85.6883 212.234 99.15 217.091 112.547 215.392C124.172 213.917 134.734 207.662 146.304 205.805C164.494 202.886 182.568 211.121 198.302 220.718C214.035 230.315 229.232 241.691 247.111 246.14C264.471 250.46 285.979 238.043 301.93 225.876Z" fill="#F5E4CE"/>
<path d="M276.058 25.1341C275.663 24.8706 275.264 24.6207 274.869 24.3663C263.459 17.0586 251.228 11.1219 238.431 6.67881L235.463 47.6694H216.652V0.695141C215.468 0.449797 214.274 0.218084 213.081 0V47.6694H190.726C178.419 47.6694 166.617 42.774 157.915 34.06C149.212 25.3461 144.324 13.5274 144.324 1.20406V1.20401C143.126 1.46299 141.937 1.74014 140.748 2.03546V47.6694H122.54L119.714 8.5825C106.562 13.6331 94.0768 20.2749 82.5353 28.36C82.3357 28.4963 82.136 28.6371 81.9409 28.7734C80.9382 29.4776 79.9491 30.1955 78.9645 30.9224V187.302H132.627L131.678 174.149L126.46 101.931H231.539L226.321 174.149L225.372 187.302H278.44V26.7152C277.651 26.1791 276.857 25.6521 276.058 25.1341ZM140.748 90.0049H125.598L122.799 51.2496H140.748V90.0049ZM213.081 90.0049H187.636V89.2371C187.636 88.8679 187.564 88.5024 187.422 88.1615C187.281 87.8205 187.074 87.5108 186.813 87.25C186.552 86.9892 186.243 86.7825 185.902 86.6416C185.561 86.5008 185.196 86.4286 184.828 86.4292H173.766C173.398 86.4291 173.033 86.5016 172.693 86.6427C172.352 86.7837 172.043 86.9905 171.783 87.2513C171.522 87.5121 171.316 87.8216 171.175 88.1624C171.034 88.5031 170.962 88.8683 170.962 89.2371V90.0049H144.324V51.2496H213.081V90.0049ZM216.652 90.0049V51.2496H235.205L232.405 90.0049H216.652Z" fill="#666D98"/>
<path d="M0 197.316C3.94163 201.993 8.20494 206.388 12.7588 210.469L344.241 210.923C348.795 206.842 353.058 202.447 357 197.77L0 197.316Z" fill="#666D98"/>
<path d="M224.789 155.199V194.138C224.789 194.634 224.986 195.11 225.337 195.46C225.687 195.811 226.162 196.009 226.658 196.009H284.283C284.779 196.009 285.254 195.811 285.604 195.46C285.955 195.11 286.152 194.634 286.152 194.138V155.199C286.151 154.703 285.954 154.228 285.603 153.877C285.253 153.527 284.778 153.33 284.283 153.329H226.658C226.163 153.33 225.688 153.527 225.338 153.877C224.988 154.228 224.79 154.703 224.789 155.199Z" fill="#3F3D56"/>
<path d="M226.141 155.683V193.657C226.141 193.923 226.247 194.177 226.434 194.364C226.621 194.552 226.875 194.657 227.14 194.658H283.803C284.068 194.657 284.322 194.552 284.509 194.364C284.696 194.177 284.802 193.923 284.802 193.657V155.683C284.802 155.418 284.697 155.163 284.51 154.975C284.323 154.788 284.068 154.682 283.803 154.681H227.14C226.875 154.682 226.621 154.788 226.433 154.975C226.246 155.163 226.141 155.418 226.141 155.683V155.683Z" fill="#C3B5FA"/>
<path d="M223.584 201.732C223.689 201.864 223.824 201.971 223.976 202.044C224.129 202.118 224.296 202.155 224.466 202.154H286.169C286.337 202.154 286.504 202.116 286.656 202.043C286.808 201.971 286.943 201.865 287.049 201.734C287.155 201.602 287.231 201.449 287.271 201.285C287.31 201.121 287.313 200.95 287.278 200.784L286.321 196.228C286.281 196.043 286.195 195.87 286.072 195.725C285.948 195.581 285.791 195.47 285.614 195.403C285.485 195.352 285.349 195.326 285.211 195.326H225.42C225.282 195.326 225.145 195.352 225.017 195.403C224.839 195.47 224.682 195.581 224.558 195.725C224.435 195.87 224.349 196.043 224.31 196.228L223.352 200.784C223.318 200.949 223.321 201.12 223.361 201.284C223.401 201.448 223.477 201.601 223.584 201.732Z" fill="#2F2E41"/>
<path d="M283.094 197.289H284.551C284.673 197.289 284.772 197.189 284.772 197.067V196.369C284.772 196.246 284.673 196.147 284.551 196.147H283.094C282.971 196.147 282.872 196.246 282.872 196.369V197.067C282.872 197.189 282.971 197.289 283.094 197.289Z" fill="#3F3D56"/>
<path d="M279.293 197.289H280.75C280.872 197.289 280.972 197.189 280.972 197.067V196.369C280.972 196.246 280.872 196.147 280.75 196.147H279.293C279.17 196.147 279.071 196.246 279.071 196.369V197.067C279.071 197.189 279.17 197.289 279.293 197.289Z" fill="#3F3D56"/>
<path d="M275.492 197.289H276.949C277.072 197.289 277.171 197.189 277.171 197.067V196.369C277.171 196.246 277.072 196.147 276.949 196.147H275.492C275.37 196.147 275.27 196.246 275.27 196.369V197.067C275.27 197.189 275.37 197.289 275.492 197.289Z" fill="#3F3D56"/>
<path d="M271.691 197.289H273.148C273.271 197.289 273.37 197.189 273.37 197.067V196.369C273.37 196.246 273.271 196.147 273.148 196.147H271.691C271.569 196.147 271.47 196.246 271.47 196.369V197.067C271.47 197.189 271.569 197.289 271.691 197.289Z" fill="#3F3D56"/>
<path d="M267.89 197.289H269.348C269.47 197.289 269.569 197.189 269.569 197.067V196.369C269.569 196.246 269.47 196.147 269.348 196.147H267.89C267.768 196.147 267.669 196.246 267.669 196.369V197.067C267.669 197.189 267.768 197.289 267.89 197.289Z" fill="#3F3D56"/>
<path d="M264.089 197.289H265.547C265.669 197.289 265.768 197.189 265.768 197.067V196.369C265.768 196.246 265.669 196.147 265.547 196.147H264.089C263.967 196.147 263.868 196.246 263.868 196.369V197.067C263.868 197.189 263.967 197.289 264.089 197.289Z" fill="#3F3D56"/>
<path d="M260.288 197.289H261.746C261.868 197.289 261.967 197.189 261.967 197.067V196.369C261.967 196.246 261.868 196.147 261.746 196.147H260.288C260.166 196.147 260.067 196.246 260.067 196.369V197.067C260.067 197.189 260.166 197.289 260.288 197.289Z" fill="#3F3D56"/>
<path d="M256.488 197.289H257.945C258.067 197.289 258.167 197.189 258.167 197.067V196.369C258.167 196.246 258.067 196.147 257.945 196.147H256.488C256.365 196.147 256.266 196.246 256.266 196.369V197.067C256.266 197.189 256.365 197.289 256.488 197.289Z" fill="#3F3D56"/>
<path d="M252.687 197.289H254.144C254.267 197.289 254.366 197.189 254.366 197.067V196.369C254.366 196.246 254.267 196.147 254.144 196.147H252.687C252.564 196.147 252.465 196.246 252.465 196.369V197.067C252.465 197.189 252.564 197.289 252.687 197.289Z" fill="#3F3D56"/>
<path d="M248.886 197.289H250.343C250.466 197.289 250.565 197.189 250.565 197.067V196.369C250.565 196.246 250.466 196.147 250.343 196.147H248.886C248.764 196.147 248.665 196.246 248.665 196.369V197.067C248.665 197.189 248.764 197.289 248.886 197.289Z" fill="#3F3D56"/>
<path d="M245.085 197.289H246.543C246.665 197.289 246.764 197.189 246.764 197.067V196.369C246.764 196.246 246.665 196.147 246.543 196.147H245.085C244.963 196.147 244.864 196.246 244.864 196.369V197.067C244.864 197.189 244.963 197.289 245.085 197.289Z" fill="#3F3D56"/>
<path d="M241.284 197.289H242.742C242.864 197.289 242.963 197.189 242.963 197.067V196.369C242.963 196.246 242.864 196.147 242.742 196.147H241.284C241.162 196.147 241.063 196.246 241.063 196.369V197.067C241.063 197.189 241.162 197.289 241.284 197.289Z" fill="#3F3D56"/>
<path d="M237.483 197.289H238.941C239.063 197.289 239.162 197.189 239.162 197.067V196.369C239.162 196.246 239.063 196.147 238.941 196.147H237.483C237.361 196.147 237.262 196.246 237.262 196.369V197.067C237.262 197.189 237.361 197.289 237.483 197.289Z" fill="#3F3D56"/>
<path d="M233.683 197.289H235.14C235.262 197.289 235.362 197.189 235.362 197.067V196.369C235.362 196.246 235.262 196.147 235.14 196.147H233.683C233.56 196.147 233.461 196.246 233.461 196.369V197.067C233.461 197.189 233.56 197.289 233.683 197.289Z" fill="#3F3D56"/>
<path d="M229.882 197.289H231.339C231.462 197.289 231.561 197.189 231.561 197.067V196.369C231.561 196.246 231.462 196.147 231.339 196.147H229.882C229.759 196.147 229.66 196.246 229.66 196.369V197.067C229.66 197.189 229.759 197.289 229.882 197.289Z" fill="#3F3D56"/>
<path d="M226.081 197.289H227.538C227.661 197.289 227.76 197.189 227.76 197.067V196.369C227.76 196.246 227.661 196.147 227.538 196.147H226.081C225.959 196.147 225.859 196.246 225.859 196.369V197.067C225.859 197.189 225.959 197.289 226.081 197.289Z" fill="#3F3D56"/>
<path d="M283.139 199.191H284.596C284.718 199.191 284.818 199.092 284.818 198.97V198.271C284.818 198.149 284.718 198.05 284.596 198.05H283.139C283.016 198.05 282.917 198.149 282.917 198.271V198.97C282.917 199.092 283.016 199.191 283.139 199.191Z" fill="#3F3D56"/>
<path d="M279.338 199.191H280.795C280.917 199.191 281.017 199.092 281.017 198.97V198.271C281.017 198.149 280.917 198.05 280.795 198.05H279.338C279.215 198.05 279.116 198.149 279.116 198.271V198.97C279.116 199.092 279.215 199.191 279.338 199.191Z" fill="#3F3D56"/>
<path d="M275.537 199.191H276.994C277.117 199.191 277.216 199.092 277.216 198.97V198.271C277.216 198.149 277.117 198.05 276.994 198.05H275.537C275.415 198.05 275.315 198.149 275.315 198.271V198.97C275.315 199.092 275.415 199.191 275.537 199.191Z" fill="#3F3D56"/>
<path d="M271.736 199.191H273.193C273.316 199.191 273.415 199.092 273.415 198.97V198.271C273.415 198.149 273.316 198.05 273.193 198.05H271.736C271.614 198.05 271.514 198.149 271.514 198.271V198.97C271.514 199.092 271.614 199.191 271.736 199.191Z" fill="#3F3D56"/>
<path d="M267.935 199.191H269.393C269.515 199.191 269.614 199.092 269.614 198.97V198.271C269.614 198.149 269.515 198.05 269.393 198.05H267.935C267.813 198.05 267.714 198.149 267.714 198.271V198.97C267.714 199.092 267.813 199.191 267.935 199.191Z" fill="#3F3D56"/>
<path d="M264.134 199.191H265.592C265.714 199.191 265.813 199.092 265.813 198.97V198.271C265.813 198.149 265.714 198.05 265.592 198.05H264.134C264.012 198.05 263.913 198.149 263.913 198.271V198.97C263.913 199.092 264.012 199.191 264.134 199.191Z" fill="#3F3D56"/>
<path d="M260.333 199.191H261.791C261.913 199.191 262.012 199.092 262.012 198.97V198.271C262.012 198.149 261.913 198.05 261.791 198.05H260.333C260.211 198.05 260.112 198.149 260.112 198.271V198.97C260.112 199.092 260.211 199.191 260.333 199.191Z" fill="#3F3D56"/>
<path d="M256.533 199.191H257.99C258.112 199.191 258.212 199.092 258.212 198.97V198.271C258.212 198.149 258.112 198.05 257.99 198.05H256.533C256.41 198.05 256.311 198.149 256.311 198.271V198.97C256.311 199.092 256.41 199.191 256.533 199.191Z" fill="#3F3D56"/>
<path d="M252.732 199.191H254.189C254.311 199.191 254.411 199.092 254.411 198.97V198.271C254.411 198.149 254.311 198.05 254.189 198.05H252.732C252.609 198.05 252.51 198.149 252.51 198.271V198.97C252.51 199.092 252.609 199.191 252.732 199.191Z" fill="#3F3D56"/>
<path d="M248.931 199.191H250.388C250.511 199.191 250.61 199.092 250.61 198.97V198.271C250.61 198.149 250.511 198.05 250.388 198.05H248.931C248.809 198.05 248.709 198.149 248.709 198.271V198.97C248.709 199.092 248.809 199.191 248.931 199.191Z" fill="#3F3D56"/>
<path d="M245.13 199.191H246.587C246.71 199.191 246.809 199.092 246.809 198.97V198.271C246.809 198.149 246.71 198.05 246.587 198.05H245.13C245.008 198.05 244.909 198.149 244.909 198.271V198.97C244.909 199.092 245.008 199.191 245.13 199.191Z" fill="#3F3D56"/>
<path d="M241.329 199.191H242.787C242.909 199.191 243.008 199.092 243.008 198.97V198.271C243.008 198.149 242.909 198.05 242.787 198.05H241.329C241.207 198.05 241.108 198.149 241.108 198.271V198.97C241.108 199.092 241.207 199.191 241.329 199.191Z" fill="#3F3D56"/>
<path d="M237.528 199.191H238.986C239.108 199.191 239.207 199.092 239.207 198.97V198.271C239.207 198.149 239.108 198.05 238.986 198.05H237.528C237.406 198.05 237.307 198.149 237.307 198.271V198.97C237.307 199.092 237.406 199.191 237.528 199.191Z" fill="#3F3D56"/>
<path d="M233.728 199.191H235.185C235.307 199.191 235.406 199.092 235.406 198.97V198.271C235.406 198.149 235.307 198.05 235.185 198.05H233.728C233.605 198.05 233.506 198.149 233.506 198.271V198.97C233.506 199.092 233.605 199.191 233.728 199.191Z" fill="#3F3D56"/>
<path d="M229.927 199.191H231.384C231.506 199.191 231.606 199.092 231.606 198.97V198.271C231.606 198.149 231.506 198.05 231.384 198.05H229.927C229.804 198.05 229.705 198.149 229.705 198.271V198.97C229.705 199.092 229.804 199.191 229.927 199.191Z" fill="#3F3D56"/>
<path d="M226.126 199.191H227.583C227.706 199.191 227.805 199.092 227.805 198.97V198.271C227.805 198.149 227.706 198.05 227.583 198.05H226.126C226.003 198.05 225.904 198.149 225.904 198.271V198.97C225.904 199.092 226.003 199.191 226.126 199.191Z" fill="#3F3D56"/>
<path d="M251.591 201.475H266.352C266.474 201.475 266.573 201.376 266.573 201.253V200.555C266.573 200.433 266.474 200.333 266.352 200.333H251.591C251.469 200.333 251.37 200.433 251.37 200.555V201.253C251.37 201.376 251.469 201.475 251.591 201.475Z" fill="#3F3D56"/>
<path d="M235.953 162.989H234.663C234.272 162.989 233.955 163.306 233.955 163.698C233.955 164.09 234.272 164.407 234.663 164.407H235.953C236.344 164.407 236.662 164.09 236.662 163.698C236.662 163.306 236.344 162.989 235.953 162.989Z" fill="white"/>
<path d="M250.71 162.989H249.42C249.028 162.989 248.711 163.306 248.711 163.698C248.711 164.09 249.028 164.407 249.42 164.407H250.71C251.101 164.407 251.418 164.09 251.418 163.698C251.418 163.306 251.101 162.989 250.71 162.989Z" fill="white"/>
<path d="M254.891 162.989H253.601C253.209 162.989 252.892 163.306 252.892 163.698C252.892 164.09 253.209 164.407 253.601 164.407H254.891C255.282 164.407 255.599 164.09 255.599 163.698C255.599 163.306 255.282 162.989 254.891 162.989Z" fill="white"/>
<path d="M246.696 162.871H238.677C238.286 162.871 237.969 163.188 237.969 163.58C237.969 163.972 238.286 164.289 238.677 164.289H246.696C247.087 164.289 247.404 163.972 247.404 163.58C247.404 163.188 247.087 162.871 246.696 162.871Z" fill="white"/>
<path d="M266.371 162.871H258.352C257.961 162.871 257.644 163.188 257.644 163.58C257.644 163.972 257.961 164.289 258.352 164.289H266.371C266.763 164.289 267.08 163.972 267.08 163.58C267.08 163.188 266.763 162.871 266.371 162.871Z" fill="white"/>
<path d="M239.888 166.19H238.598C238.207 166.19 237.89 166.508 237.89 166.9C237.89 167.291 238.207 167.609 238.598 167.609H239.888C240.28 167.609 240.597 167.291 240.597 166.9C240.597 166.508 240.28 166.19 239.888 166.19Z" fill="white"/>
<path d="M254.645 166.19H253.355C252.963 166.19 252.646 166.508 252.646 166.9C252.646 167.291 252.963 167.609 253.355 167.609H254.645C255.036 167.609 255.353 167.291 255.353 166.9C255.353 166.508 255.036 166.19 254.645 166.19Z" fill="white"/>
<path d="M258.826 166.19H257.536C257.144 166.19 256.827 166.508 256.827 166.9C256.827 167.291 257.144 167.609 257.536 167.609H258.826C259.217 167.609 259.534 167.291 259.534 166.9C259.534 166.508 259.217 166.19 258.826 166.19Z" fill="white"/>
<path d="M250.631 166.072H242.612C242.221 166.072 241.904 166.39 241.904 166.782C241.904 167.173 242.221 167.491 242.612 167.491H250.631C251.022 167.491 251.339 167.173 251.339 166.782C251.339 166.39 251.022 166.072 250.631 166.072Z" fill="white"/>
<path d="M270.306 166.072H262.287C261.896 166.072 261.579 166.39 261.579 166.782C261.579 167.173 261.896 167.491 262.287 167.491H270.306C270.698 167.491 271.015 167.173 271.015 166.782C271.015 166.39 270.698 166.072 270.306 166.072Z" fill="white"/>
<path d="M243.823 169.392H242.533C242.142 169.392 241.825 169.71 241.825 170.101C241.825 170.493 242.142 170.811 242.533 170.811H243.823C244.215 170.811 244.532 170.493 244.532 170.101C244.532 169.71 244.215 169.392 243.823 169.392Z" fill="white"/>
<path d="M258.58 169.392H257.29C256.899 169.392 256.581 169.71 256.581 170.101C256.581 170.493 256.899 170.811 257.29 170.811H258.58C258.971 170.811 259.288 170.493 259.288 170.101C259.288 169.71 258.971 169.392 258.58 169.392Z" fill="white"/>
<path d="M262.761 169.392H261.471C261.08 169.392 260.762 169.71 260.762 170.101C260.762 170.493 261.08 170.811 261.471 170.811H262.761C263.152 170.811 263.469 170.493 263.469 170.101C263.469 169.71 263.152 169.392 262.761 169.392Z" fill="white"/>
<path d="M254.566 169.274H246.547C246.156 169.274 245.839 169.591 245.839 169.983C245.839 170.375 246.156 170.692 246.547 170.692H254.566C254.957 170.692 255.275 170.375 255.275 169.983C255.275 169.591 254.957 169.274 254.566 169.274Z" fill="white"/>
<path d="M274.242 169.274H266.222C265.831 169.274 265.514 169.591 265.514 169.983C265.514 170.375 265.831 170.692 266.222 170.692H274.242C274.633 170.692 274.95 170.375 274.95 169.983C274.95 169.591 274.633 169.274 274.242 169.274Z" fill="white"/>
<path d="M247.759 172.594H246.468C246.077 172.594 245.76 172.911 245.76 173.303C245.76 173.694 246.077 174.012 246.468 174.012H247.759C248.15 174.012 248.467 173.694 248.467 173.303C248.467 172.911 248.15 172.594 247.759 172.594Z" fill="white"/>
<path d="M262.515 172.594H261.225C260.834 172.594 260.517 172.911 260.517 173.303C260.517 173.694 260.834 174.012 261.225 174.012H262.515C262.906 174.012 263.223 173.694 263.223 173.303C263.223 172.911 262.906 172.594 262.515 172.594Z" fill="white"/>
<path d="M266.696 172.594H265.406C265.015 172.594 264.698 172.911 264.698 173.303C264.698 173.694 265.015 174.012 265.406 174.012H266.696C267.087 174.012 267.404 173.694 267.404 173.303C267.404 172.911 267.087 172.594 266.696 172.594Z" fill="white"/>
<path d="M258.501 172.475H250.482C250.091 172.475 249.774 172.793 249.774 173.185C249.774 173.576 250.091 173.894 250.482 173.894H258.501C258.892 173.894 259.209 173.576 259.209 173.185C259.209 172.793 258.892 172.475 258.501 172.475Z" fill="white"/>
<path d="M250.71 185.324H249.42C249.028 185.324 248.711 185.642 248.711 186.034C248.711 186.425 249.028 186.743 249.42 186.743H250.71C251.101 186.743 251.418 186.425 251.418 186.034C251.418 185.642 251.101 185.324 250.71 185.324Z" fill="white"/>
<path d="M254.891 185.324H253.601C253.209 185.324 252.892 185.642 252.892 186.034C252.892 186.425 253.209 186.743 253.601 186.743H254.891C255.282 186.743 255.599 186.425 255.599 186.034C255.599 185.642 255.282 185.324 254.891 185.324Z" fill="white"/>
<path d="M266.371 185.443H258.352C257.961 185.443 257.644 185.76 257.644 186.152C257.644 186.544 257.961 186.861 258.352 186.861H266.371C266.763 186.861 267.08 186.544 267.08 186.152C267.08 185.76 266.763 185.443 266.371 185.443Z" fill="white"/>
<path d="M235.953 185.324H234.663C234.272 185.324 233.955 185.642 233.955 186.034C233.955 186.425 234.272 186.743 234.663 186.743H235.953C236.344 186.743 236.662 186.425 236.662 186.034C236.662 185.642 236.344 185.324 235.953 185.324Z" fill="white"/>
<path d="M246.696 185.443H238.677C238.286 185.443 237.969 185.76 237.969 186.152C237.969 186.544 238.286 186.861 238.677 186.861H246.696C247.087 186.861 247.404 186.544 247.404 186.152C247.404 185.76 247.087 185.443 246.696 185.443Z" fill="white"/>
<path d="M239.888 182.123H238.598C238.207 182.123 237.89 182.44 237.89 182.832C237.89 183.224 238.207 183.541 238.598 183.541H239.888C240.28 183.541 240.597 183.224 240.597 182.832C240.597 182.44 240.28 182.123 239.888 182.123Z" fill="white"/>
<path d="M254.645 182.123H253.355C252.963 182.123 252.646 182.44 252.646 182.832C252.646 183.224 252.963 183.541 253.355 183.541H254.645C255.036 183.541 255.353 183.224 255.353 182.832C255.353 182.44 255.036 182.123 254.645 182.123Z" fill="white"/>
<path d="M258.826 182.123H257.536C257.144 182.123 256.827 182.44 256.827 182.832C256.827 183.224 257.144 183.541 257.536 183.541H258.826C259.217 183.541 259.534 183.224 259.534 182.832C259.534 182.44 259.217 182.123 258.826 182.123Z" fill="white"/>
<path d="M250.631 182.241H242.612C242.221 182.241 241.904 182.559 241.904 182.95C241.904 183.342 242.221 183.66 242.612 183.66H250.631C251.022 183.66 251.339 183.342 251.339 182.95C251.339 182.559 251.022 182.241 250.631 182.241Z" fill="white"/>
<path d="M243.823 178.921H242.533C242.142 178.921 241.825 179.239 241.825 179.631C241.825 180.022 242.142 180.34 242.533 180.34H243.823C244.215 180.34 244.532 180.022 244.532 179.631C244.532 179.239 244.215 178.921 243.823 178.921Z" fill="white"/>
<path d="M258.58 178.921H257.29C256.899 178.921 256.581 179.239 256.581 179.631C256.581 180.022 256.899 180.34 257.29 180.34H258.58C258.971 180.34 259.288 180.022 259.288 179.631C259.288 179.239 258.971 178.921 258.58 178.921Z" fill="white"/>
<path d="M262.761 178.921H261.471C261.08 178.921 260.762 179.239 260.762 179.631C260.762 180.022 261.08 180.34 261.471 180.34H262.761C263.152 180.34 263.469 180.022 263.469 179.631C263.469 179.239 263.152 178.921 262.761 178.921Z" fill="white"/>
<path d="M254.566 179.04H246.547C246.156 179.04 245.839 179.357 245.839 179.749C245.839 180.141 246.156 180.458 246.547 180.458H254.566C254.957 180.458 255.275 180.141 255.275 179.749C255.275 179.357 254.957 179.04 254.566 179.04Z" fill="white"/>
<path d="M247.759 175.72H246.468C246.077 175.72 245.76 176.037 245.76 176.429C245.76 176.821 246.077 177.138 246.468 177.138H247.759C248.15 177.138 248.467 176.821 248.467 176.429C248.467 176.037 248.15 175.72 247.759 175.72Z" fill="white"/>
<path d="M262.515 175.72H261.225C260.834 175.72 260.517 176.037 260.517 176.429C260.517 176.821 260.834 177.138 261.225 177.138H262.515C262.906 177.138 263.223 176.821 263.223 176.429C263.223 176.037 262.906 175.72 262.515 175.72Z" fill="white"/>
<path d="M266.696 175.72H265.406C265.015 175.72 264.698 176.037 264.698 176.429C264.698 176.821 265.015 177.138 265.406 177.138H266.696C267.087 177.138 267.404 176.821 267.404 176.429C267.404 176.037 267.087 175.72 266.696 175.72Z" fill="white"/>
<path d="M258.501 175.838H250.482C250.091 175.838 249.774 176.155 249.774 176.547C249.774 176.939 250.091 177.256 250.482 177.256H258.501C258.892 177.256 259.209 176.939 259.209 176.547C259.209 176.155 258.892 175.838 258.501 175.838Z" fill="white"/>
<path d="M229.094 222.846L223.037 213.258L242.049 198.082L249.896 189.376C250.915 188.245 252.214 187.402 253.66 186.931C255.107 186.46 256.653 186.377 258.141 186.691C259.63 187.005 261.011 187.705 262.145 188.72C263.279 189.736 264.127 191.032 264.605 192.479C265.312 194.623 265.16 196.958 264.181 198.991C263.201 201.025 261.471 202.598 259.355 203.379L246.946 207.956L229.094 222.846Z" fill="#FFB6B6"/>
<path d="M86.9746 153.331V199.929H119.575V153.331C119.575 152.996 119.469 152.67 119.27 152.4C119.072 152.13 118.792 151.931 118.472 151.832C118.322 151.782 118.164 151.758 118.005 151.759H88.549C88.3425 151.759 88.138 151.799 87.9471 151.878C87.7562 151.957 87.5827 152.073 87.4365 152.219C87.2902 152.365 87.1742 152.538 87.0949 152.729C87.0157 152.92 86.9748 153.125 86.9746 153.331ZM99.6971 169.342C99.7056 168.424 100.076 167.546 100.728 166.899C101.379 166.252 102.26 165.89 103.177 165.89C104.095 165.89 104.975 166.252 105.627 166.899C106.278 167.546 106.649 168.424 106.657 169.342V174.749C106.653 175.67 106.284 176.552 105.632 177.202C104.98 177.851 104.097 178.216 103.177 178.216C102.257 178.216 101.375 177.851 100.723 177.202C100.07 176.552 99.7018 175.67 99.6971 174.749V169.342Z" fill="#2F2E41"/>
<path d="M86.8748 198.438V202.932C86.8755 203.164 86.9678 203.387 87.1318 203.553C87.2957 203.718 87.518 203.811 87.7504 203.813H118.799C119.032 203.812 119.254 203.719 119.418 203.553C119.582 203.388 119.675 203.165 119.675 202.932V198.438H86.8748Z" fill="#3F3D56"/>
<path d="M35.6901 83.1265V168.206C35.6909 169.291 36.1214 170.33 36.887 171.097C37.6527 171.863 38.6908 172.295 39.7736 172.295H165.682C166.765 172.295 167.803 171.863 168.569 171.097C169.335 170.33 169.765 169.291 169.766 168.206V83.1265C169.763 82.0432 169.332 81.0051 168.567 80.2396C167.801 79.474 166.764 79.0434 165.682 79.042H39.7736C38.6918 79.0434 37.6546 79.474 36.8892 80.2396C36.1238 81.0051 35.6926 82.0432 35.6901 83.1265Z" fill="#3F3D56"/>
<path d="M38.6438 84.185V167.157C38.6448 167.736 38.875 168.291 39.2841 168.701C39.6932 169.111 40.2477 169.341 40.8262 169.342H164.634C165.213 169.341 165.767 169.111 166.176 168.701C166.585 168.291 166.816 167.736 166.817 167.157V84.185C166.817 83.605 166.587 83.0488 166.178 82.6382C165.768 82.2277 165.213 81.9964 164.634 81.9951H40.8262C40.247 81.9964 39.6919 82.2277 39.2828 82.6382C38.8737 83.0488 38.6439 83.605 38.6438 84.185Z" fill="white"/>
<path d="M61.6204 203.509C61.7464 203.667 61.9066 203.794 62.0889 203.882C62.2712 203.969 62.471 204.014 62.6731 204.013H136.331C136.532 204.013 136.731 203.967 136.913 203.881C137.095 203.794 137.255 203.667 137.382 203.511C137.509 203.354 137.599 203.171 137.646 202.975C137.694 202.779 137.697 202.575 137.656 202.377L136.512 196.939C136.465 196.717 136.363 196.511 136.215 196.338C136.068 196.166 135.88 196.034 135.668 195.953C135.515 195.893 135.352 195.862 135.187 195.862H63.8119C63.6473 195.862 63.4842 195.893 63.331 195.953C63.1193 196.034 62.9312 196.166 62.7838 196.338C62.6364 196.511 62.5344 196.717 62.487 196.939L61.3436 202.377C61.303 202.575 61.3067 202.779 61.3546 202.974C61.4024 203.17 61.4933 203.352 61.6204 203.509Z" fill="#2F2E41"/>
<path d="M160.616 93.4251H44.7695C44.6491 93.4224 44.5345 93.3726 44.4503 93.2864C44.3661 93.2002 44.319 93.0844 44.319 92.9638C44.319 92.8431 44.3661 92.7273 44.4503 92.6411C44.5345 92.5549 44.6491 92.5051 44.7695 92.5024H160.616C160.737 92.5051 160.851 92.5549 160.935 92.6411C161.02 92.7273 161.067 92.8431 161.067 92.9638C161.067 93.0844 161.02 93.2002 160.935 93.2864C160.851 93.3726 160.737 93.4224 160.616 93.4251Z" fill="#3F3D56"/>
<path d="M52.6554 90.1469C54.1465 90.1469 55.3553 88.9096 55.3553 87.3832C55.3553 85.8568 54.1465 84.6194 52.6554 84.6194C51.1643 84.6194 49.9556 85.8568 49.9556 87.3832C49.9556 88.9096 51.1643 90.1469 52.6554 90.1469Z" fill="#C3B5FA"/>
<path d="M61.9822 90.1469C63.4733 90.1469 64.6821 88.9096 64.6821 87.3832C64.6821 85.8568 63.4733 84.6194 61.9822 84.6194C60.4911 84.6194 59.2823 85.8568 59.2823 87.3832C59.2823 88.9096 60.4911 90.1469 61.9822 90.1469Z" fill="#C3B5FA"/>
<path d="M71.309 90.1469C72.8001 90.1469 74.0088 88.9096 74.0088 87.3832C74.0088 85.8568 72.8001 84.6194 71.309 84.6194C69.8179 84.6194 68.6091 85.8568 68.6091 87.3832C68.6091 88.9096 69.8179 90.1469 71.309 90.1469Z" fill="#C3B5FA"/>
<path d="M155 85.303H148.376C148.245 85.306 148.12 85.3603 148.029 85.4541C147.937 85.5479 147.886 85.6739 147.886 85.805C147.886 85.9362 147.937 86.0621 148.029 86.156C148.12 86.2498 148.245 86.304 148.376 86.3071H155C155.132 86.3052 155.257 86.2515 155.35 86.1575C155.442 86.0636 155.494 85.937 155.494 85.805C155.494 85.6731 155.442 85.5465 155.35 85.4525C155.257 85.3586 155.132 85.3048 155 85.303Z" fill="#3F3D56"/>
<path d="M155 87.1885H148.376C148.244 87.1914 148.12 87.2456 148.028 87.3394C147.936 87.4332 147.885 87.5593 147.885 87.6905C147.885 87.8218 147.936 87.9478 148.028 88.0417C148.12 88.1355 148.244 88.1897 148.376 88.1926H155C155.132 88.191 155.258 88.1374 155.351 88.0434C155.443 87.9494 155.495 87.8226 155.495 87.6905C155.495 87.5584 155.443 87.4316 155.351 87.3376C155.258 87.2437 155.132 87.1901 155 87.1885Z" fill="#3F3D56"/>
<path d="M155 89.074H148.376C148.245 89.077 148.12 89.1313 148.029 89.2251C147.937 89.3189 147.886 89.4449 147.886 89.576C147.886 89.7072 147.937 89.8331 148.029 89.927C148.12 90.0208 148.245 90.075 148.376 90.0781H155C155.132 90.0762 155.257 90.0225 155.35 89.9285C155.442 89.8346 155.494 89.708 155.494 89.576C155.494 89.4441 155.442 89.3174 155.35 89.2235C155.257 89.1295 155.132 89.0758 155 89.074Z" fill="#3F3D56"/>
<path d="M314.702 200.41C314.902 200.993 315.281 201.497 315.785 201.851C316.289 202.205 316.892 202.389 317.507 202.378L329.527 202.068C330.147 202.056 330.746 201.844 331.235 201.462C331.725 201.081 332.077 200.551 332.241 199.952L333.942 181.739C334.545 182.013 335.202 182.148 335.865 182.135C336.44 182.12 337.007 181.992 337.533 181.759C338.059 181.525 338.534 181.189 338.931 180.772C339.328 180.354 339.639 179.862 339.845 179.324C340.052 178.786 340.151 178.213 340.137 177.636C340.122 177.06 339.995 176.492 339.761 175.966C339.528 175.439 339.193 174.963 338.776 174.566C338.358 174.169 337.867 173.858 337.33 173.65C336.793 173.443 336.22 173.344 335.645 173.358C335.38 173.358 335.116 173.385 334.857 173.441C334.575 173.135 334.233 172.893 333.852 172.728C333.471 172.564 333.06 172.481 332.645 172.485L314.156 172.963C314.003 172.969 313.85 172.988 313.7 173.02C313.294 173.096 312.91 173.257 312.572 173.494C312.234 173.731 311.951 174.038 311.742 174.394C311.532 174.75 311.401 175.146 311.357 175.557C311.314 175.968 311.359 176.383 311.489 176.775L314.702 200.41ZM334.291 180.502L335.501 176.162C335.639 175.661 335.642 175.132 335.51 174.629C335.569 174.629 335.621 174.601 335.68 174.601C336.509 174.584 337.312 174.897 337.912 175.471C338.512 176.046 338.86 176.835 338.879 177.666C338.898 178.497 338.588 179.302 338.016 179.904C337.444 180.507 336.656 180.857 335.826 180.879C335.29 180.895 334.759 180.765 334.291 180.502Z" fill="#2F2E41"/>
<path d="M313.7 173.02C314.094 175.275 318.523 176.861 323.848 176.585C328.745 176.359 332.749 174.637 333.482 172.597C333.211 172.516 332.929 172.479 332.646 172.485L314.156 172.963C314.003 172.969 313.85 172.988 313.7 173.02Z" fill="#3F3D56"/>
<path d="M324.824 190.402C324.848 190.396 324.871 190.385 324.892 190.372L327.503 188.661C327.534 188.64 327.56 188.612 327.578 188.579C327.596 188.546 327.605 188.509 327.605 188.471C327.605 188.433 327.596 188.396 327.578 188.363C327.56 188.33 327.534 188.301 327.503 188.281L324.79 186.501C324.765 186.485 324.737 186.473 324.707 186.468C324.678 186.462 324.648 186.462 324.619 186.468C324.59 186.474 324.562 186.486 324.537 186.503C324.512 186.52 324.491 186.541 324.475 186.566C324.458 186.591 324.447 186.619 324.442 186.649C324.436 186.678 324.436 186.708 324.443 186.737C324.449 186.767 324.461 186.794 324.477 186.819C324.494 186.844 324.516 186.865 324.541 186.881L326.964 188.47L324.644 189.992C324.599 190.021 324.566 190.065 324.551 190.117C324.535 190.168 324.539 190.224 324.56 190.273C324.582 190.322 324.62 190.362 324.669 190.386C324.717 190.409 324.772 190.415 324.824 190.402H324.824Z" fill="#C3B5FA"/>
<path d="M320.701 190.592C320.745 190.581 320.784 190.557 320.814 190.524C320.844 190.49 320.864 190.448 320.87 190.403C320.876 190.358 320.869 190.313 320.849 190.272C320.829 190.231 320.797 190.198 320.758 190.175L318.352 188.794L320.678 187.064C320.701 187.046 320.722 187.024 320.737 186.998C320.752 186.973 320.762 186.944 320.767 186.915C320.771 186.885 320.769 186.855 320.762 186.826C320.755 186.798 320.742 186.77 320.724 186.746C320.707 186.722 320.684 186.702 320.659 186.687C320.633 186.672 320.605 186.662 320.575 186.657C320.546 186.653 320.516 186.654 320.487 186.662C320.458 186.669 320.431 186.682 320.407 186.7L317.803 188.636C317.773 188.659 317.749 188.688 317.733 188.723C317.717 188.757 317.71 188.794 317.712 188.832C317.714 188.87 317.726 188.906 317.746 188.938C317.766 188.97 317.793 188.997 317.826 189.016L320.532 190.569C320.583 190.599 320.644 190.607 320.701 190.592V190.592Z" fill="#C3B5FA"/>
<path d="M324.564 191.901C324.586 191.896 324.607 191.887 324.626 191.875C324.652 191.859 324.674 191.839 324.692 191.815C324.709 191.791 324.722 191.764 324.729 191.735C324.736 191.706 324.737 191.675 324.733 191.646C324.728 191.617 324.718 191.588 324.702 191.563L321.002 185.471C320.971 185.419 320.92 185.383 320.862 185.368C320.803 185.354 320.742 185.364 320.69 185.395C320.639 185.427 320.602 185.477 320.588 185.536C320.574 185.594 320.583 185.656 320.614 185.707L324.315 191.799C324.34 191.841 324.378 191.873 324.423 191.891C324.467 191.91 324.517 191.913 324.564 191.901Z" fill="#C3B5FA"/>
<path d="M116.535 118.504H96.4841C95.6661 118.504 95.0031 119.168 95.0031 119.987V121.949C95.0031 122.768 95.6661 123.432 96.4841 123.432H116.535C117.353 123.432 118.016 122.768 118.016 121.949V119.987C118.016 119.168 117.353 118.504 116.535 118.504Z" fill="#C3B5FA"/>
<path d="M128.222 128.36H84.7968C83.9789 128.36 83.3158 129.024 83.3158 129.843V131.804C83.3158 132.623 83.9789 133.287 84.7968 133.287H128.222C129.04 133.287 129.703 132.623 129.703 131.804V129.843C129.703 129.024 129.04 128.36 128.222 128.36Z" fill="#E6E6E6"/>
<path d="M128.222 138.215H84.7968C83.9789 138.215 83.3158 138.879 83.3158 139.698V141.659C83.3158 142.479 83.9789 143.142 84.7968 143.142H128.222C129.04 143.142 129.703 142.479 129.703 141.659V139.698C129.703 138.879 129.04 138.215 128.222 138.215Z" fill="#E6E6E6"/>
<path d="M131.903 171.216L132.001 171.527L132.006 171.538L134.967 180.551L138.373 190.938L144.781 210.457L144.843 213.489V213.499L145.319 237.89L143.999 241.197L145.485 246.618C145.485 246.618 144.801 238.423 141.137 243.129C139.061 245.804 136.634 248.54 134.641 251.106C137.545 252.283 140.495 253.347 143.492 254.299C144.139 254.506 144.791 254.703 145.443 254.9C145.583 254.941 145.723 254.983 145.862 255.024C155.797 257.966 166.067 259.619 176.421 259.943C176.96 259.959 177.488 259.969 178 259.979C178.181 259.984 178.357 259.99 178.533 259.99C179.113 259.995 179.687 260 180.267 260C181.437 260 182.601 259.983 183.761 259.948C192.342 259.706 200.874 258.551 209.211 256.501C209.154 253.055 208.999 249.028 208.776 244.726C208.673 242.616 206.349 240.331 206.209 238.123C206.11 236.464 208.196 234.904 208.088 233.22C207.384 222.848 206.504 226.83 205.852 219.485C205.784 218.765 205.722 218.076 205.665 217.417C205.246 212.701 204.956 209.752 204.956 209.752L207.741 192.176L212.115 164.582L211.778 164.028L211.4 163.841L188.331 152.407L187.079 149.194C186.714 148.268 186.08 147.473 185.26 146.91C184.44 146.348 183.471 146.044 182.477 146.038L167.281 145.975C166.492 145.972 165.714 146.157 165.011 146.514C164.308 146.872 163.7 147.393 163.238 148.033L159.123 153.739L131.903 171.216Z" fill="#666D98"/>
<path d="M148.285 206.113L144.843 213.489L142.493 218.527L138.451 239.72L136.427 241.871L134.693 234.256L116.545 238.291C115.95 234.979 116.386 238.403 116.018 234.77C116.122 234.666 116.23 234.563 116.339 234.459C116.629 234.189 116.872 233.936 116.867 233.692C116.66 221.16 117.281 199.832 122.467 186.91C123.28 184.801 124.351 182.8 125.656 180.955C125.759 180.815 125.858 180.675 125.956 180.535C128.347 177.182 129.859 173.88 132.001 171.533V171.527C132.015 171.517 132.027 171.504 132.038 171.491C132.045 171.487 132.052 171.482 132.058 171.476L146.779 163.66L147.41 181.427L147.861 194.198L148.285 206.113Z" fill="#666D98"/>
<path d="M201.364 208.208L205.663 217.42L207.164 220.628L211.205 241.819L213.222 243.965L214.96 236.352L215.777 236.185L230.504 233.13L234.797 246.782C235.764 245.167 236.145 243.268 235.876 241.405C235.606 239.542 234.702 237.829 233.317 236.556C233.024 236.291 232.78 236.032 232.786 235.788C233.031 221.047 232.13 194.132 223.999 183.054C221.417 179.539 219.867 176.037 217.613 173.591C217.606 173.584 217.606 173.577 217.599 173.577L212.113 164.582L211.777 164.03L211.401 163.841L201.364 208.208Z" fill="#666D98"/>
<path d="M175.318 141.645C186.483 141.645 195.535 132.581 195.535 121.4C195.535 110.219 186.483 101.156 175.318 101.156C164.152 101.156 155.101 110.219 155.101 121.4C155.101 132.581 164.152 141.645 175.318 141.645Z" fill="#FFB6B6"/>
<path d="M202.644 107.259C202.487 107.092 202.298 106.957 202.088 106.864C201.879 106.772 201.653 106.722 201.423 106.719L201.727 105.874C201.826 105.607 201.853 105.32 201.805 105.04C201.756 104.76 201.635 104.498 201.452 104.28C201.269 104.063 201.032 103.898 200.764 103.803C200.497 103.708 200.209 103.685 199.93 103.738L198.823 103.952L198.928 103.211C198.968 102.935 198.935 102.654 198.834 102.394C198.732 102.135 198.565 101.906 198.348 101.731C198.132 101.556 197.874 101.44 197.599 101.396C197.324 101.351 197.042 101.378 196.782 101.476C196.544 101.569 196.289 101.608 196.035 101.59C195.78 101.572 195.533 101.497 195.312 101.371C195.089 101.249 194.896 101.079 194.745 100.874C194.595 100.67 194.491 100.434 194.44 100.185L194.055 98.3224L194.014 98.2224C192.135 95.0875 188.524 92.8067 184.105 91.9707C180.171 91.221 176.137 91.6027 172.249 91.9616C170.706 92.107 168.964 92.2706 167.512 93.1611C166.278 93.9244 165.234 95.451 165.447 96.9912C161.613 95.8144 157.503 98.1634 155.465 101.126C153.052 104.651 152.657 109.068 152.593 112.521C152.421 120.69 154.104 127.373 157.584 132.389C157.838 132.752 157.902 133.511 158.406 133.766L158.301 133.597C158.864 133.879 159.435 134.333 159.222 134.82C158.61 136.219 162.68 139.313 165.547 140.335C170.779 142.203 177.734 142.044 182.625 141.371L182.798 140.213C184.563 139.972 185.806 139.513 186.155 138.795C186.772 138.268 187.299 137.795 187.757 137.359L187.762 137.355C187.771 137.346 187.789 137.332 187.798 137.323C190.007 135.201 190.52 133.993 190.752 132.153C190.974 130.349 190.579 128.518 190.175 126.869C198.678 128.186 186.827 117.8 194.749 115.792C194.84 115.764 194.932 115.741 195.026 115.724C195.257 115.669 195.488 115.615 195.711 115.551C196.783 115.26 197.809 114.821 198.76 114.247C200.974 112.898 201.705 111.108 202.848 109.09C203.013 108.803 203.082 108.471 203.045 108.141C203.009 107.812 202.868 107.503 202.644 107.259Z" fill="#2F2E41"/>
<path d="M246.823 209.65C246.818 210.445 246.809 211.558 246.773 212.934C246.769 213.125 246.764 213.321 246.759 213.52C246.7 216.051 246.642 218.173 246.546 220.531C246.542 220.695 246.537 220.854 246.528 221.017C246.401 224.307 246.201 228.137 245.857 234.202C245.217 245.406 244.101 235.742 242.98 239.672C242.925 239.868 242.867 240.099 242.812 240.372C242.642 241.361 242.356 242.326 241.959 243.248C241.365 243.602 240.752 243.943 240.149 244.284C238.429 245.243 236.682 246.165 234.922 247.042C233.933 247.532 232.939 248.014 231.941 248.477C231.782 248.55 231.628 248.623 231.473 248.691C226.362 251.059 221.094 253.071 215.707 254.716C214.654 255.034 213.606 255.343 212.544 255.629C211.437 255.938 210.33 256.229 209.209 256.501C200.872 258.551 192.341 259.707 183.76 259.95C182.603 259.986 181.437 260 180.266 260C179.685 260 179.114 259.995 178.533 259.99C178.356 259.99 178.179 259.986 178.002 259.981C177.489 259.968 176.958 259.959 176.423 259.945C166.069 259.622 155.798 257.968 145.865 255.025L145.443 254.902C144.789 254.702 144.141 254.507 143.492 254.298C140.497 253.348 137.546 252.285 134.639 251.108C132.421 250.213 130.228 249.253 128.06 248.228C128.041 248.222 128.022 248.213 128.006 248.2C127.552 247.991 127.094 247.773 126.64 247.551C126.581 247.519 126.518 247.487 126.454 247.455C124.762 246.628 123.088 245.762 121.432 244.856C120.039 241.653 118.079 241.04 116.863 238.223C116.509 237.386 116.253 236.511 116.1 235.615C116.1 235.606 116.096 235.597 116.096 235.583C116.223 237.273 115.556 232.585 116.091 235.565C116.087 235.511 116.082 235.451 116.078 235.383C116.064 235.22 116.046 235.02 116.019 234.77C114.462 219.554 114.562 202.153 113.886 187.814C113.841 186.887 113.794 186 113.745 185.151C113.732 184.87 113.714 184.593 113.696 184.32C113.727 184.238 113.764 184.152 113.804 184.07C113.813 184.047 113.824 184.024 113.836 184.002C113.85 183.974 113.865 183.946 113.882 183.92C113.891 183.907 113.904 183.888 113.913 183.875C113.92 183.859 113.928 183.844 113.936 183.829C113.977 183.766 114.022 183.698 114.072 183.634C114.095 183.607 114.113 183.584 114.136 183.561C114.151 183.538 114.17 183.517 114.19 183.498C114.204 183.476 114.221 183.456 114.24 183.439C114.258 183.42 114.276 183.398 114.299 183.375C114.309 183.361 114.321 183.348 114.335 183.339C114.371 183.297 114.411 183.259 114.453 183.225C114.615 183.076 114.788 182.939 114.971 182.816C115.034 182.775 115.102 182.734 115.166 182.689C115.623 182.415 116.104 182.184 116.604 181.998C116.776 181.935 116.949 181.876 117.135 181.812C117.203 181.794 117.266 181.771 117.334 181.748C117.434 181.717 117.534 181.685 117.638 181.662C118.156 181.508 118.714 181.376 119.317 181.253C119.39 181.24 119.467 181.226 119.544 181.208C119.653 181.185 119.766 181.167 119.88 181.149C120.034 181.121 120.193 181.094 120.352 181.067C121.699 180.853 123.228 180.694 124.916 180.59C125.075 180.581 125.234 180.572 125.393 180.563C125.579 180.554 125.765 180.544 125.955 180.535C126.114 180.526 126.277 180.522 126.441 180.517C126.599 180.508 126.763 180.504 126.931 180.499C127.389 180.485 127.861 180.472 128.342 180.463C129.712 180.435 131.155 180.445 132.67 180.476C133.374 180.494 134.09 180.513 134.826 180.544C134.875 180.544 134.921 180.549 134.966 180.549C135.606 180.572 136.25 180.599 136.913 180.635C137.375 180.658 137.843 180.681 138.31 180.708C138.75 180.735 139.195 180.763 139.644 180.794C139.993 180.813 140.343 180.84 140.697 180.862C140.996 180.885 141.296 180.908 141.595 180.926L142.003 180.953C142.226 180.972 142.448 180.985 142.675 181.008C143.174 181.049 143.673 181.09 144.181 181.131C144.685 181.176 145.198 181.221 145.71 181.267C146.223 181.312 146.74 181.362 147.258 181.412C147.312 181.417 147.362 181.421 147.412 181.426C147.884 181.476 148.356 181.521 148.832 181.571C148.941 181.58 149.054 181.589 149.163 181.603C149.617 181.649 150.081 181.702 150.539 181.751C150.68 181.766 150.82 181.781 150.961 181.796C151.32 181.836 151.674 181.87 152.035 181.912C152.512 181.967 152.997 182.017 153.469 182.08C153.837 182.121 154.204 182.162 154.572 182.207C155.148 182.276 155.733 182.348 156.318 182.425C156.541 182.453 156.763 182.48 156.985 182.512C158.655 182.721 160.343 182.952 162.058 183.193C164.658 183.561 167.299 183.961 169.957 184.393C172.621 184.824 175.299 185.28 177.993 185.76C178.673 185.883 179.354 186.006 180.039 186.133C180.348 186.192 180.656 186.251 180.965 186.31C181.491 186.405 182.017 186.505 182.544 186.605C183.07 186.705 183.596 186.805 184.123 186.91C184.749 187.032 185.38 187.155 186.006 187.278C190.13 188.096 194.232 188.968 198.234 189.881C198.891 190.031 199.549 190.186 200.203 190.335C201.509 190.64 202.804 190.949 204.087 191.262C204.441 191.344 204.79 191.43 205.139 191.517C206.01 191.735 206.882 191.953 207.739 192.176L207.889 192.216C208.52 192.371 209.137 192.53 209.754 192.694C211.21 193.075 212.642 193.461 214.05 193.852C214.985 194.111 215.909 194.373 216.823 194.638C218.188 195.033 219.527 195.433 220.829 195.838C221.151 195.937 221.473 196.037 221.791 196.133C222.744 196.428 223.683 196.728 224.595 197.028C225.321 197.264 226.029 197.505 226.727 197.746C227.426 197.987 228.111 198.227 228.783 198.468C229.214 198.623 229.64 198.786 230.067 198.941C230.679 199.168 231.283 199.395 231.873 199.622C232.054 199.69 232.231 199.763 232.408 199.831C232.522 199.881 232.63 199.922 232.739 199.967C232.953 200.054 233.17 200.136 233.379 200.222C233.592 200.304 233.801 200.39 234.01 200.481C234.214 200.563 234.423 200.649 234.622 200.735C234.826 200.817 235.026 200.903 235.226 200.994C235.394 201.062 235.557 201.135 235.716 201.208C236.038 201.349 236.36 201.49 236.673 201.635C236.827 201.708 236.982 201.776 237.136 201.848L237.49 202.012C237.54 202.039 237.59 202.062 237.64 202.085C237.753 202.139 237.871 202.198 237.984 202.253C238.248 202.376 238.506 202.507 238.76 202.63C239.101 202.803 239.432 202.975 239.749 203.143C240.072 203.316 240.385 203.489 240.684 203.657C240.734 203.684 240.779 203.711 240.829 203.739C240.897 203.775 240.965 203.816 241.033 203.852C241.265 203.984 241.487 204.12 241.709 204.252C242.145 204.52 242.558 204.783 242.944 205.047C243.03 205.106 243.111 205.165 243.198 205.22C243.484 205.424 243.756 205.624 244.01 205.828C244.01 205.833 244.01 205.833 244.014 205.833C244.101 205.897 244.182 205.965 244.264 206.028C244.332 206.092 244.405 206.147 244.473 206.21C244.709 206.415 244.926 206.61 245.126 206.81C245.193 206.872 245.257 206.937 245.317 207.005C245.343 207.027 245.367 207.051 245.389 207.078C245.48 207.169 245.562 207.26 245.639 207.35C245.651 207.363 245.661 207.377 245.67 207.391C245.779 207.519 245.879 207.646 245.975 207.773C246.02 207.837 246.07 207.9 246.111 207.964C246.165 208.041 246.219 208.123 246.265 208.2C246.306 208.264 246.342 208.332 246.378 208.396C246.475 208.559 246.557 208.731 246.623 208.909C246.674 209.03 246.715 209.154 246.746 209.281C246.78 209.402 246.806 209.525 246.823 209.65Z" fill="#3F3D56"/>
<path opacity="0.2" d="M246.823 209.649C246.818 210.445 246.809 211.558 246.773 212.934C246.768 213.125 246.759 213.32 246.755 213.52C246.709 215.451 246.641 217.837 246.546 220.531C246.542 220.694 246.537 220.853 246.528 221.017C246.401 224.306 246.201 228.137 245.856 234.202C245.217 245.406 244.101 235.742 242.98 239.672C239.867 237.755 236.455 235.747 232.807 233.684C232.149 233.311 231.486 232.937 230.815 232.562C223.52 228.486 215.371 224.216 206.863 219.986C206.528 219.818 206.187 219.649 205.852 219.486C186.364 209.84 165.093 200.458 147.861 194.197C144.535 192.989 141.359 191.898 138.374 190.94C132.085 188.927 126.649 187.518 122.466 186.91C118.11 186.274 115.102 186.501 113.886 187.814C113.841 186.887 113.794 185.999 113.745 185.151C113.727 184.87 113.709 184.593 113.691 184.32C113.719 184.245 113.755 184.174 113.791 184.102C113.796 184.091 113.799 184.08 113.804 184.07C113.813 184.046 113.824 184.024 113.836 184.002C113.849 183.974 113.865 183.946 113.881 183.92C113.896 183.888 113.915 183.857 113.936 183.829C113.977 183.766 114.022 183.697 114.072 183.634C114.109 183.586 114.148 183.541 114.19 183.498C114.204 183.476 114.221 183.456 114.24 183.438C114.258 183.42 114.276 183.398 114.299 183.375C114.309 183.361 114.321 183.348 114.335 183.339C114.371 183.297 114.411 183.259 114.453 183.225C114.615 183.076 114.788 182.939 114.97 182.816C115.034 182.775 115.102 182.734 115.166 182.689C115.623 182.415 116.104 182.184 116.604 181.998C116.776 181.935 116.949 181.876 117.135 181.812C117.203 181.794 117.266 181.771 117.334 181.748C117.434 181.717 117.534 181.685 117.638 181.662C118.156 181.508 118.714 181.376 119.317 181.253C119.499 181.217 119.689 181.18 119.88 181.149C120.034 181.121 120.193 181.094 120.352 181.067C121.699 180.853 123.228 180.694 124.916 180.59C125.075 180.581 125.234 180.572 125.392 180.563C125.579 180.553 125.765 180.544 125.955 180.535C126.114 180.526 126.277 180.522 126.441 180.517C126.599 180.508 126.763 180.503 126.931 180.499C127.389 180.485 127.861 180.472 128.342 180.463C129.712 180.44 131.155 180.449 132.67 180.481C133.374 180.494 134.09 180.517 134.825 180.549C134.871 180.549 134.921 180.553 134.966 180.553C135.606 180.572 136.255 180.603 136.913 180.635C137.375 180.658 137.843 180.681 138.31 180.708C138.75 180.735 139.195 180.762 139.644 180.794C139.993 180.812 140.343 180.84 140.697 180.862C140.996 180.885 141.296 180.908 141.595 180.926C141.953 180.953 142.312 180.981 142.675 181.008C143.174 181.049 143.673 181.09 144.181 181.13C144.685 181.176 145.198 181.221 145.71 181.267C146.223 181.312 146.74 181.362 147.257 181.412C147.312 181.417 147.362 181.421 147.412 181.426C147.884 181.476 148.356 181.521 148.832 181.571C151.473 181.839 154.19 182.153 156.985 182.512C158.655 182.725 160.346 182.954 162.058 183.198C164.658 183.566 167.299 183.966 169.957 184.393C172.621 184.824 175.299 185.28 177.993 185.76C178.673 185.883 179.354 186.006 180.039 186.133C180.874 186.287 181.709 186.445 182.544 186.605C183.07 186.705 183.596 186.805 184.123 186.91C184.749 187.032 185.379 187.155 186.006 187.278C190.13 188.095 194.232 188.968 198.234 189.881C198.891 190.031 199.549 190.185 200.203 190.335C201.509 190.64 202.804 190.949 204.087 191.262C204.44 191.349 204.79 191.435 205.139 191.521C206.015 191.739 206.881 191.957 207.739 192.175V192.18C207.789 192.189 207.839 192.203 207.889 192.216C208.515 192.375 209.136 192.534 209.754 192.698C211.21 193.08 212.642 193.464 214.05 193.852C214.985 194.115 215.911 194.374 216.823 194.638C218.188 195.038 219.527 195.438 220.829 195.837C221.151 195.937 221.473 196.037 221.791 196.133C222.744 196.433 223.678 196.731 224.595 197.028C225.321 197.264 226.029 197.505 226.727 197.746C227.426 197.986 228.111 198.227 228.783 198.468C229.218 198.623 229.645 198.782 230.067 198.936C230.684 199.163 231.283 199.39 231.873 199.622C232.054 199.69 232.231 199.763 232.408 199.831C232.739 199.958 233.061 200.09 233.379 200.222C233.592 200.304 233.801 200.39 234.01 200.481C234.214 200.563 234.423 200.649 234.622 200.735C234.826 200.817 235.026 200.903 235.226 200.994C235.394 201.062 235.557 201.135 235.716 201.208C236.038 201.349 236.36 201.489 236.673 201.635C236.827 201.708 236.982 201.776 237.136 201.848L237.49 202.012C237.54 202.039 237.59 202.062 237.64 202.085C238.025 202.266 238.397 202.448 238.76 202.63C239.1 202.802 239.432 202.975 239.749 203.143C240.126 203.343 240.484 203.539 240.829 203.738C240.897 203.775 240.965 203.816 241.033 203.852C241.265 203.984 241.487 204.12 241.709 204.252C242.145 204.52 242.558 204.783 242.944 205.047C243.325 205.31 243.679 205.569 244.01 205.828C244.01 205.833 244.01 205.833 244.014 205.833C244.173 205.96 244.327 206.087 244.473 206.21C244.709 206.414 244.926 206.61 245.126 206.81C245.193 206.871 245.257 206.937 245.317 207.005C245.343 207.027 245.367 207.051 245.389 207.078C245.484 207.182 245.58 207.287 245.67 207.391C245.779 207.519 245.879 207.646 245.974 207.773C246.02 207.837 246.07 207.9 246.111 207.964C246.165 208.041 246.219 208.123 246.265 208.2C246.306 208.264 246.342 208.332 246.378 208.395C246.475 208.559 246.557 208.731 246.623 208.909C246.673 209.03 246.714 209.154 246.746 209.281C246.78 209.402 246.806 209.525 246.823 209.649Z" fill="black"/>
</g>
<defs>
<clipPath id="clip0_56_197">
<rect width="357" height="260" fill="white"/>
</clipPath>
</defs>
</svg>
