<svg width="452" height="333" viewBox="0 0 452 333" fill="none" xmlns="http://www.w3.org/2000/svg">
<g clip-path="url(#clip0_55_42)">
<path d="M452 123.305H262.008V128.878H452V123.305Z" fill="#F5E4CE"/>
<path d="M325.845 76.6971H277.714V124.825H325.845V76.6971Z" fill="#F5E4CE"/>
<path d="M316.219 86.3226H287.34V115.199H316.219V86.3226Z" fill="#C1B2A0"/>
<path d="M397.789 76.6971H385.629V124.825H397.789V76.6971Z" fill="#F5E4CE"/>
<path d="M397.789 84.2962H385.629V89.8689H397.789V84.2962Z" fill="#C1B2A0"/>
<path d="M397.789 108.613H385.629V114.186H397.789V108.613Z" fill="#C1B2A0"/>
<path d="M379.043 76.6971H366.883V124.825H379.043V76.6971Z" fill="#F5E4CE"/>
<path d="M379.043 84.2962H366.883V89.8689H379.043V84.2962Z" fill="#C1B2A0"/>
<path d="M379.043 108.613H366.883V114.186H379.043V108.613Z" fill="#C1B2A0"/>
<path d="M408.266 76.4981L397.369 81.8928L418.724 125.024L429.621 119.629L408.266 76.4981Z" fill="#F5E4CE"/>
<path d="M411.638 83.3083L400.741 88.703L403.213 93.6971L414.11 88.3024L411.638 83.3083Z" fill="#C1B2A0"/>
<path d="M422.428 105.101L411.531 110.496L414.003 115.49L424.901 110.095L422.428 105.101Z" fill="#C1B2A0"/>
<path d="M295.699 96.0156L301.823 106.621L307.946 117.226H295.699H283.453L289.576 106.621L295.699 96.0156Z" fill="#F5E4CE"/>
<path d="M306.339 98.0421L312.462 108.647L318.586 119.252H306.339H294.093L300.216 108.647L306.339 98.0421Z" fill="#F5E4CE"/>
<path d="M310.646 94.935C312.605 94.935 314.192 93.3473 314.192 91.3887C314.192 89.4302 312.605 87.8425 310.646 87.8425C308.687 87.8425 307.099 89.4302 307.099 91.3887C307.099 93.3473 308.687 94.935 310.646 94.935Z" fill="#F5E4CE"/>
<path d="M262.008 52.3798L452 52.3798V46.8071L262.008 46.8071V52.3798Z" fill="#F5E4CE"/>
<path d="M388.163 48.3269L436.294 48.3269V0.198997L388.163 0.198997V48.3269Z" fill="#F5E4CE"/>
<path d="M397.789 38.7013H426.668V9.82458L397.789 9.82458V38.7013Z" fill="#C1B2A0"/>
<path d="M316.219 48.3269H328.378V0.198997H316.219V48.3269Z" fill="#F5E4CE"/>
<path d="M316.219 13.3708L328.378 13.3708V7.79815L316.219 7.79815V13.3708Z" fill="#C1B2A0"/>
<path d="M316.219 37.6881H328.378V32.1154H316.219V37.6881Z" fill="#C1B2A0"/>
<path d="M334.965 48.3269H347.124V0.198997H334.965V48.3269Z" fill="#F5E4CE"/>
<path d="M334.965 13.3708L347.124 13.3708V7.79815L334.965 7.79815V13.3708Z" fill="#C1B2A0"/>
<path d="M334.965 37.6881H347.124V32.1154H334.965V37.6881Z" fill="#C1B2A0"/>
<path d="M284.387 43.1313L295.284 48.526L316.639 5.3947L305.742 3.62651e-05L284.387 43.1313Z" fill="#F5E4CE"/>
<path d="M299.897 11.8044L310.794 17.199L313.267 12.2049L302.37 6.81022L299.897 11.8044Z" fill="#C1B2A0"/>
<path d="M289.107 33.597L300.004 38.9917L302.477 33.9975L291.58 28.6029L289.107 33.597Z" fill="#C1B2A0"/>
<path d="M418.308 19.5173L412.185 30.1224L406.062 40.7275H418.308H430.555L424.431 30.1224L418.308 19.5173Z" fill="#F5E4CE"/>
<path d="M407.668 21.5438L401.545 32.1489L395.422 42.754H407.668H419.915L413.792 32.1489L407.668 21.5438Z" fill="#F5E4CE"/>
<path d="M403.362 18.4369C405.321 18.4369 406.908 16.8492 406.908 14.8907C406.908 12.9321 405.321 11.3444 403.362 11.3444C401.403 11.3444 399.815 12.9321 399.815 14.8907C399.815 16.8492 401.403 18.4369 403.362 18.4369Z" fill="#F5E4CE"/>
<path d="M262.008 205.376L452 205.376V199.803L262.008 199.803V205.376Z" fill="#F5E4CE"/>
<path d="M388.163 201.323H436.294V153.195H388.163V201.323Z" fill="#F5E4CE"/>
<path d="M397.789 191.697H426.668V162.821H397.789V191.697Z" fill="#C1B2A0"/>
<path d="M316.219 201.323H328.378V153.195H316.219V201.323Z" fill="#F5E4CE"/>
<path d="M316.219 166.367H328.378V160.794H316.219V166.367Z" fill="#C1B2A0"/>
<path d="M316.219 190.684H328.378V185.111H316.219V190.684Z" fill="#C1B2A0"/>
<path d="M334.965 201.323H347.124V153.195H334.965V201.323Z" fill="#F5E4CE"/>
<path d="M334.965 166.367H347.124V160.794H334.965V166.367Z" fill="#C1B2A0"/>
<path d="M334.965 190.684H347.124V185.111H334.965V190.684Z" fill="#C1B2A0"/>
<path d="M284.387 196.127L295.284 201.522L316.639 158.391L305.742 152.996L284.387 196.127Z" fill="#F5E4CE"/>
<path d="M299.897 164.8L310.794 170.195L313.267 165.201L302.37 159.806L299.897 164.8Z" fill="#C1B2A0"/>
<path d="M289.107 186.593L300.004 191.988L302.477 186.994L291.58 181.599L289.107 186.593Z" fill="#C1B2A0"/>
<path d="M418.308 172.513L412.185 183.118L406.062 193.724H418.308H430.555L424.431 183.118L418.308 172.513Z" fill="#F5E4CE"/>
<path d="M407.668 174.54L401.545 185.145L395.422 195.751H407.668H419.915L413.792 185.145L407.668 174.54Z" fill="#F5E4CE"/>
<path d="M403.362 171.433C405.321 171.433 406.908 169.845 406.908 167.887C406.908 165.928 405.321 164.341 403.362 164.341C401.403 164.341 399.815 165.928 399.815 167.887C399.815 169.845 401.403 171.433 403.362 171.433Z" fill="#F5E4CE"/>
<path d="M223.811 333C347.418 333 447.622 325.884 447.622 317.105C447.622 308.327 347.418 301.211 223.811 301.211C100.204 301.211 0 308.327 0 317.105C0 325.884 100.204 333 223.811 333Z" fill="#F5E4CE"/>
<path d="M398.664 326.006C362.169 319.511 322.261 320.591 280.4 326.006C299.48 309.9 315.947 293.793 296.867 277.687C334.085 285.365 339.298 284.587 380.699 277.687C371.096 293.793 389.061 309.9 398.664 326.006Z" fill="#C3B5FA"/>
<path opacity="0.2" d="M398.664 326.006C362.169 319.511 322.261 320.591 280.4 326.006C299.48 309.9 315.947 293.793 296.867 277.687C334.085 285.365 339.298 284.587 380.699 277.687C371.096 293.793 389.061 309.9 398.664 326.006Z" fill="black"/>
<path d="M389.762 319.135C358.761 313.95 324.861 314.812 289.301 319.135C305.509 306.278 319.497 293.422 303.289 280.565C334.905 286.694 339.333 286.073 374.502 280.565C366.345 293.422 381.604 306.278 389.762 319.135Z" fill="#C3B5FA"/>
<path d="M377.954 298.42C387.077 298.42 394.472 291.025 394.472 281.903C394.472 272.781 387.077 265.387 377.954 265.387C368.832 265.387 361.436 272.781 361.436 281.903C361.436 291.025 368.832 298.42 377.954 298.42Z" fill="#494033"/>
<path d="M302.971 262.746L314.416 264.654L320.139 281.184L303.607 291.356L284.532 262.746H302.335H302.971Z" fill="#A3763C"/>
<path d="M335.399 288.177C350.147 288.177 362.103 276.222 362.103 261.475C362.103 246.727 350.147 234.772 335.399 234.772C320.65 234.772 308.694 246.727 308.694 261.475C308.694 276.222 320.65 288.177 335.399 288.177Z" fill="#A3763C"/>
<path d="M187.887 164.2C187.887 164.2 123.032 171.194 111.588 169.922C100.143 168.651 95.0561 167.379 95.0561 167.379C95.0561 167.379 87.4262 177.551 91.2412 182.002C93.3777 184.566 95.9632 186.721 98.8711 188.36C98.8711 188.36 105.865 186.452 110.952 188.36C116.038 190.267 167.54 198.532 176.442 190.903C185.344 183.274 187.887 164.2 187.887 164.2Z" fill="#2F2E41"/>
<path d="M192.338 305.979C192.338 305.979 149.737 293.899 142.107 240.494V235.408C142.107 235.408 133.678 250.194 130.662 253.209C127.165 256.706 114.767 288.177 115.403 291.356C116.038 294.535 115.403 295.807 115.403 295.807L96.9636 293.899V288.177C96.9636 288.177 106.819 258.614 107.455 251.62C108.091 244.626 131.934 195.989 131.934 195.989C131.934 195.989 140.836 177.551 156.096 195.989C171.355 214.427 172.627 227.142 172.627 227.142L192.338 265.289L192.338 305.979Z" fill="#2F2E41"/>
<path d="M96.9636 165.472L76.6172 158.478C76.6172 158.478 57.5424 144.491 61.9932 158.478C66.444 172.465 86.7904 202.983 92.5129 199.804C98.2353 196.625 105.117 188.734 103.584 187.593C102.05 186.452 91.877 178.187 96.9636 165.472Z" fill="#2F2E41"/>
<path d="M99.423 284.424L82.9984 292.445C82.9984 292.445 63.1361 295.5 74.2131 301.229C85.2902 306.958 115.848 313.069 117.376 307.722C118.903 302.375 118.297 293.501 116.69 293.737C115.084 293.972 104.007 295.118 99.423 284.424Z" fill="#2F2E41"/>
<path d="M184.072 264.018C184.072 264.018 175.806 299.621 189.794 307.251C203.783 314.88 301.7 316.152 309.33 302.165C316.96 288.177 313.145 288.177 313.145 288.177L292.798 265.289L309.33 264.018C309.33 264.018 309.33 258.931 303.607 258.296C297.885 257.66 280.082 251.302 264.822 255.753C249.562 260.203 240.661 246.852 240.661 246.852L184.072 264.018Z" fill="#666D98"/>
<path d="M173.263 152.756L162.454 211.884L236.846 202.983L250.198 149.577L173.263 152.756Z" fill="#3F3D56"/>
<path d="M175.488 154.981L166.587 207.751L234.302 199.804L247.337 151.802L175.488 154.981Z" fill="white"/>
<path d="M164.997 212.52L162.454 211.884L161.182 214.427L181.529 271.011L183.442 270.28L184.072 266.561L164.997 212.52Z" fill="#B3B3B3"/>
<path d="M162.454 211.248L182.8 270.376L259.735 258.932L236.846 202.983L162.454 211.248Z" fill="#D0CDE1"/>
<path d="M172.627 209.341V212.52L229.215 206.162L228.58 202.983L172.627 209.341Z" fill="#3F3D56"/>
<path d="M173.899 215.698L182.8 240.494L240.661 233.5L230.488 209.976L173.899 215.698Z" fill="#3F3D56"/>
<path d="M246.383 250.666L244.475 245.58C244.475 245.58 229.851 220.149 222.222 225.235C214.592 230.321 238.117 255.117 238.117 255.117H245.747L246.383 250.666Z" fill="#A3763C"/>
<path d="M198.06 254.481L196.153 246.852C196.153 246.852 191.066 223.328 199.967 224.599C208.869 225.871 211.412 248.123 211.412 248.123L210.777 253.209L198.06 254.481Z" fill="#A3763C"/>
<path d="M213.32 251.302C213.32 251.302 196.788 248.759 196.153 252.574C195.517 256.388 192.338 313.609 208.233 315.516C224.129 317.423 302.972 325.689 294.706 305.979C286.44 286.27 273.723 288.813 273.723 288.813L219.678 294.535L213.32 251.302Z" fill="#666D98"/>
<path d="M263.232 258.614L246.383 246.852L235.256 255.435L249.244 270.694L263.232 258.614Z" fill="#666D98"/>
<path opacity="0.2" d="M218.089 270.058L220.632 294.218L264.504 291.674L226.354 291.039L218.089 270.058Z" fill="black"/>
<path d="M348.581 298.116C366.139 298.116 380.372 283.883 380.372 266.327C380.372 248.77 366.139 234.538 348.581 234.538C331.023 234.538 316.79 248.77 316.79 266.327C316.79 283.883 331.023 298.116 348.581 298.116Z" fill="#494033"/>
<path d="M185.026 173.419L224.447 172.047L228.262 157.525L187.569 158.752L185.026 173.419Z" fill="#C3B5FA"/>
<path d="M174.853 181.684L234.62 179.777L235.256 177.233L175.488 179.338L174.853 181.684Z" fill="#E6E6E6"/>
<path d="M173.581 188.042L233.349 186.134L233.984 183.591L174.216 185.695L173.581 188.042Z" fill="#E6E6E6"/>
<path d="M172.945 193.128L232.712 191.221L233.349 188.678L173.581 190.781L172.945 193.128Z" fill="#E6E6E6"/>
</g>
<defs>
<clipPath id="clip0_55_42">
<rect width="452" height="333" fill="white"/>
</clipPath>
</defs>
</svg>
